<svg xmlns="http://www.w3.org/2000/svg" width="20" height="20" viewBox="0 0 20 20" fill="none">
  <mask id="mask0_413_34" style="mask-type:luminance" maskUnits="userSpaceOnUse" x="0" y="0" width="20" height="20">
    <path d="M20 0H0V20H20V0Z" fill="white"/>
  </mask>
  <g mask="url(#mask0_413_34)">
    <path d="M19.6 10.2199C19.6 9.50992 19.54 8.82992 19.42 8.16992H10V12.0399H15.38C15.15 13.2899 14.44 14.3499 13.38 15.0599V17.5699H16.61C18.5 15.8299 19.59 13.2699 19.59 10.2199H19.6Z" fill="#4285F4"/>
    <path d="M10.0001 20.0004C12.7001 20.0004 14.9601 19.1004 16.6201 17.5804L13.3901 15.0704C12.4901 15.6704 11.3501 16.0204 10.0001 16.0204C7.40006 16.0204 5.19005 14.2604 4.40005 11.9004H1.06006V14.4904C2.71006 17.7604 6.09006 20.0004 10.0001 20.0004Z" fill="#34A853"/>
    <path d="M4.39999 11.8998C4.19999 11.2998 4.09 10.6598 4.09 9.99977C4.09 9.33977 4.19999 8.69977 4.39999 8.09977V5.50977H1.06C0.379998 6.85977 0 8.38977 0 9.99977C0 11.6098 0.389998 13.1398 1.06 14.4898L4.39999 11.8998Z" fill="#FBBC04"/>
    <path d="M10.0001 3.97C11.4701 3.97 12.7901 4.47 13.8201 5.47L16.6901 2.6C14.9601 0.99 12.6901 0 10.0001 0C6.09006 0 2.71006 2.24 1.06006 5.51L4.40005 8.1C5.19005 5.74 7.39006 3.98 10.0001 3.98V3.97Z" fill="#E94235"/>
  </g>
</svg>